<svg width="337" height="292" viewBox="0 0 337 292" fill="none" xmlns="http://www.w3.org/2000/svg">
<path d="M13.104 1.99579V7.79179H2.44804V1.99579H13.104ZM8.98204 13.9118H6.87604V10.9598H0.540039V9.28579H15.03V10.9598H8.98204V13.9118ZM13.356 16.9898H2.39404V12.3998H4.50004V15.3338H13.356V16.9898ZM10.998 6.11779V3.66979H4.57204V6.11779H10.998ZM18.9042 6.24379C18.9042 7.43179 19.7682 8.34979 21.2082 8.34979C22.6662 8.34979 23.5302 7.43179 23.5302 6.24379C23.5302 5.10979 22.6662 4.19179 21.2082 4.19179C19.7682 4.19179 18.9042 5.10979 18.9042 6.24379ZM29.6502 1.38379V17.4218H27.5622V1.38379H29.6502ZM16.7442 6.26179C16.7442 4.01179 18.5082 2.40979 21.2082 2.40979C23.9262 2.40979 25.6542 4.01179 25.6542 6.26179C25.6542 8.49379 23.9262 10.1138 21.2082 10.1138C18.5082 10.1138 16.7442 8.49379 16.7442 6.26179ZM26.8962 13.3178C25.3662 13.5158 23.1882 13.6958 21.4782 13.7858C19.6962 13.8578 17.7882 13.9298 16.4382 13.9118L16.1322 12.1118C17.9862 12.1118 19.5342 12.0938 21.3522 12.0218C23.3502 11.9498 25.2942 11.8058 26.7162 11.6258L26.8962 13.3178Z" fill="#222222"/>
<path d="M302.205 4.16386V8.02786H295.101V4.16386H302.205ZM299.457 12.1079H298.053V10.1399H293.829V9.02386H303.489V10.1399H299.457V12.1079ZM302.373 14.1599H295.065V11.0999H296.469V13.0559H302.373V14.1599ZM300.801 6.91186V5.27986H296.517V6.91186H300.801ZM306.072 6.99586C306.072 7.78786 306.648 8.39986 307.608 8.39986C308.58 8.39986 309.156 7.78786 309.156 6.99586C309.156 6.23986 308.58 5.62786 307.608 5.62786C306.648 5.62786 306.072 6.23986 306.072 6.99586ZM313.236 3.75586V14.4479H311.844V3.75586H313.236ZM304.632 7.00786C304.632 5.50786 305.808 4.43986 307.608 4.43986C309.42 4.43986 310.572 5.50786 310.572 7.00786C310.572 8.49586 309.42 9.57586 307.608 9.57586C305.808 9.57586 304.632 8.49586 304.632 7.00786ZM311.4 11.7119C310.38 11.8439 308.928 11.9639 307.788 12.0239C306.6 12.0719 305.328 12.1199 304.428 12.1079L304.224 10.9079C305.46 10.9079 306.492 10.8959 307.704 10.8479C309.036 10.7999 310.332 10.7039 311.28 10.5839L311.4 11.7119ZM320.75 7.41586H314.546V6.29986H320.75V7.41586ZM316.046 5.55586V4.45186H319.346V5.55586H316.046ZM322.958 3.75586V8.08786H324.446V9.25186H322.958V14.4479H321.542V3.75586H322.958ZM315.074 10.0919C315.074 8.78386 316.118 7.78786 317.654 7.78786C319.19 7.78786 320.234 8.74786 320.234 10.0919C320.234 11.3999 319.19 12.3959 317.654 12.3959C316.118 12.3959 315.074 11.4479 315.074 10.0919ZM316.442 10.0919C316.442 10.7879 316.946 11.2559 317.654 11.2559C318.434 11.2559 318.866 10.7879 318.866 10.0919C318.866 9.38386 318.35 8.91586 317.654 8.91586C316.958 8.91586 316.442 9.38386 316.442 10.0919ZM333.821 14.4479H332.417V3.75586H333.821V14.4479ZM330.533 4.87186C330.449 8.09986 329.021 10.7399 325.757 12.5159L324.893 11.4599C327.233 10.3919 328.829 8.15986 329.021 6.03586H325.541V4.87186H330.533Z" fill="#222222"/>
<path d="M293 15.5H335" stroke="#222222"/>
<path d="M0.489902 60.8299V60.1499L3.3299 57.2999C4.3499 56.2699 4.7499 55.6199 4.7499 55.0499C4.7499 54.1099 4.1099 53.5599 3.1099 53.5599C2.0299 53.5599 1.4499 54.3799 1.4499 55.2699H0.399902C0.399902 53.8199 1.4499 52.6299 3.1199 52.6299C4.7299 52.6299 5.7899 53.5999 5.7899 55.0399C5.7899 55.8999 5.2999 56.6299 4.0999 57.8599L1.9999 59.9199H6.0599V60.8299H0.489902ZM10.0324 61.0099C8.3424 61.0099 7.0724 59.6199 7.0724 56.8199C7.0724 54.0199 8.3424 52.6299 10.0324 52.6299C11.7124 52.6299 12.9824 54.0199 12.9824 56.8199C12.9824 59.6199 11.7124 61.0099 10.0324 61.0099ZM10.0324 60.0799C11.1124 60.0799 11.9724 58.9999 11.9724 56.8199C11.9724 54.6499 11.1124 53.5599 10.0324 53.5599C8.9424 53.5599 8.0824 54.6499 8.0824 56.8199C8.0824 58.9999 8.9424 60.0799 10.0324 60.0799ZM13.986 60.8299V60.1499L16.826 57.2999C17.846 56.2699 18.246 55.6199 18.246 55.0499C18.246 54.1099 17.606 53.5599 16.606 53.5599C15.526 53.5599 14.946 54.3799 14.946 55.2699H13.896C13.896 53.8199 14.946 52.6299 16.616 52.6299C18.226 52.6299 19.286 53.5999 19.286 55.0399C19.286 55.8999 18.796 56.6299 17.596 57.8599L15.496 59.9199H19.556V60.8299H13.986ZM23.3285 61.0099C21.6085 61.0099 20.5485 59.9699 20.4885 58.5699H21.5285C21.5585 59.4299 22.1985 60.0999 23.3285 60.0999C24.4485 60.0999 25.1185 59.4599 25.1185 58.6599C25.1185 57.7599 24.3985 57.2299 23.1885 57.2299H22.3085V56.3599H23.1885C24.2085 56.3599 24.8985 55.7799 24.8985 54.9499C24.8985 54.1699 24.2785 53.5299 23.2185 53.5299C22.1385 53.5299 21.5485 54.2899 21.5485 55.1399H20.4985C20.4985 53.7299 21.5785 52.6299 23.2185 52.6299C24.8685 52.6299 25.9385 53.6599 25.9385 54.9199C25.9385 55.8999 25.2485 56.5799 24.5085 56.7599C25.3185 56.9099 26.1485 57.5399 26.1485 58.6499C26.1485 59.9899 25.0085 61.0099 23.3285 61.0099ZM27.9305 60.9599C27.5305 60.9599 27.2205 60.6499 27.2205 60.2499C27.2205 59.8499 27.5305 59.5399 27.9305 59.5399C28.3305 59.5399 28.6305 59.8499 28.6305 60.2499C28.6305 60.6499 28.3305 60.9599 27.9305 60.9599ZM30.5669 60.8299V53.7399H28.9069V52.8199H31.6169V60.8299H30.5669ZM35.0884 60.8299V53.7399H33.4284V52.8199H36.1384V60.8299H35.0884ZM38.5946 60.9599C38.1946 60.9599 37.8846 60.6499 37.8846 60.2499C37.8846 59.8499 38.1946 59.5399 38.5946 59.5399C38.9946 59.5399 39.2946 59.8499 39.2946 60.2499C39.2946 60.6499 38.9946 60.9599 38.5946 60.9599ZM43.0402 61.0099C41.3502 61.0099 40.0802 59.6199 40.0802 56.8199C40.0802 54.0199 41.3502 52.6299 43.0402 52.6299C44.7202 52.6299 45.9902 54.0199 45.9902 56.8199C45.9902 59.6199 44.7202 61.0099 43.0402 61.0099ZM43.0402 60.0799C44.1202 60.0799 44.9802 58.9999 44.9802 56.8199C44.9802 54.6499 44.1202 53.5599 43.0402 53.5599C41.9502 53.5599 41.0902 54.6499 41.0902 56.8199C41.0902 58.9999 41.9502 60.0799 43.0402 60.0799ZM47.5315 60.8299L50.7915 53.7399H46.5115V52.8199H52.0015V53.5199L48.6415 60.8299H47.5315Z" fill="#222222"/>
<path d="M70.8701 61.9698C69.8301 61.9698 69.1301 61.4698 68.8401 60.9798V61.8298H67.8101V53.5698H68.8401V56.9598C69.1301 56.4698 69.8301 55.9698 70.8701 55.9698C72.4901 55.9698 73.7001 57.2598 73.7001 58.9698C73.7001 60.6798 72.4901 61.9698 70.8701 61.9698ZM70.7801 61.0598C71.9301 61.0598 72.6901 60.1598 72.6901 58.9698C72.6901 57.7798 71.9301 56.8798 70.7801 56.8798C69.6201 56.8798 68.8201 57.7798 68.8201 58.9698C68.8201 60.1598 69.6201 61.0598 70.7801 61.0598ZM77.5471 61.9698C75.9271 61.9698 74.7171 60.6798 74.7171 58.9698C74.7171 57.2598 75.9271 55.9698 77.5471 55.9698C78.5871 55.9698 79.2871 56.4698 79.5771 56.9598V56.1098H80.6071V61.8298H79.5771V60.9798C79.2871 61.4698 78.5871 61.9698 77.5471 61.9698ZM77.6371 61.0598C78.7971 61.0598 79.5971 60.1598 79.5971 58.9698C79.5971 57.7798 78.7971 56.8798 77.6371 56.8798C76.4871 56.8798 75.7271 57.7798 75.7271 58.9698C75.7271 60.1598 76.4871 61.0598 77.6371 61.0598ZM82.2242 56.1098H83.2542V56.9898C83.5042 56.5598 84.1942 55.9698 85.3142 55.9698C85.6642 55.9698 85.8942 55.9998 86.0942 56.0698V57.0498C85.8742 56.9498 85.5942 56.8898 85.2442 56.8898C84.0742 56.8898 83.2542 57.8298 83.2542 58.8698V61.8298H82.2242V56.1098ZM90.1167 54.9398L88.9067 55.4898L90.1167 56.0298L89.7167 56.7198L88.6467 55.9398L88.7767 57.2698H87.9767L88.1067 55.9498L87.0267 56.7198L86.6367 56.0298L87.8467 55.4898L86.6367 54.9398L87.0367 54.2498L88.1067 55.0298L87.9767 53.6998H88.7767L88.6467 55.0298L89.7267 54.2598L90.1167 54.9398ZM94.2574 54.9398L93.0474 55.4898L94.2574 56.0298L93.8574 56.7198L92.7874 55.9398L92.9174 57.2698H92.1174L92.2474 55.9498L91.1674 56.7198L90.7774 56.0298L91.9874 55.4898L90.7774 54.9398L91.1774 54.2498L92.2474 55.0298L92.1174 53.6998H92.9174L92.7874 55.0298L93.8674 54.2598L94.2574 54.9398ZM98.398 54.9398L97.188 55.4898L98.398 56.0298L97.998 56.7198L96.928 55.9398L97.058 57.2698H96.258L96.388 55.9498L95.308 56.7198L94.918 56.0298L96.128 55.4898L94.918 54.9398L95.318 54.2498L96.388 55.0298L96.258 53.6998H97.058L96.928 55.0298L98.008 54.2598L98.398 54.9398ZM102.539 54.9398L101.329 55.4898L102.539 56.0298L102.139 56.7198L101.069 55.9398L101.199 57.2698H100.399L100.529 55.9498L99.4486 56.7198L99.0586 56.0298L100.269 55.4898L99.0586 54.9398L99.4586 54.2498L100.529 55.0298L100.399 53.6998H101.199L101.069 55.0298L102.149 54.2598L102.539 54.9398ZM106.679 54.9398L105.469 55.4898L106.679 56.0298L106.279 56.7198L105.209 55.9398L105.339 57.2698H104.539L104.669 55.9498L103.589 56.7198L103.199 56.0298L104.409 55.4898L103.199 54.9398L103.599 54.2498L104.669 55.0298L104.539 53.6998H105.339L105.209 55.0298L106.289 54.2598L106.679 54.9398ZM110.82 54.9398L109.61 55.4898L110.82 56.0298L110.42 56.7198L109.35 55.9398L109.48 57.2698H108.68L108.81 55.9498L107.73 56.7198L107.34 56.0298L108.55 55.4898L107.34 54.9398L107.74 54.2498L108.81 55.0298L108.68 53.6998H109.48L109.35 55.0298L110.43 54.2598L110.82 54.9398ZM114.96 54.9398L113.75 55.4898L114.96 56.0298L114.56 56.7198L113.49 55.9398L113.62 57.2698H112.82L112.95 55.9498L111.87 56.7198L111.48 56.0298L112.69 55.4898L111.48 54.9398L111.88 54.2498L112.95 55.0298L112.82 53.6998H113.62L113.49 55.0298L114.57 54.2598L114.96 54.9398Z" fill="#222222"/>
<path d="M1.21777 87.8401V76.1921H4.18577V77.0461H2.29577V86.9861H4.18577V87.8401H1.21777ZM10.5953 84.9141H5.70925V76.9621H6.75925V79.9581H9.54525V76.9621H10.5953V84.9141ZM15.6213 87.9801H14.5713V81.6661H13.0733V87.3641H12.0373V76.0381H13.0733V80.7701H14.5713V75.7441H15.6213V87.9801ZM9.54525 84.0181V80.8401H6.75925V84.0181H9.54525ZM27.1466 85.8241C27.1466 87.2241 25.6206 88.0081 22.9326 88.0081C20.2586 88.0081 18.7466 87.1961 18.7466 85.8241C18.7466 84.4661 20.2586 83.6261 22.9326 83.6261C25.6206 83.6261 27.1466 84.4101 27.1466 85.8241ZM22.9326 84.5081C21.0146 84.5081 19.8386 84.9981 19.8386 85.8241C19.8386 86.6501 21.0146 87.1261 22.9326 87.1261C24.8786 87.1261 26.0546 86.6501 26.0546 85.8241C26.0546 84.9981 24.8786 84.5081 22.9326 84.5081ZM28.4626 82.6181H17.4166V81.7221H22.4006V79.8461H23.4646V81.7221H28.4626V82.6181ZM27.9306 79.6221L27.4406 80.5321C25.4106 80.1541 23.5206 78.8661 22.9326 77.6901C22.4426 78.8661 20.5946 80.1541 18.4946 80.5321L17.9906 79.6361C20.0486 79.4121 22.4006 78.0401 22.4006 76.3181V75.8981H23.5066V76.3181C23.5066 78.0401 26.0966 79.4401 27.9306 79.6221ZM39.1898 80.7281H30.9158V76.4161H39.1898V80.7281ZM38.1258 79.8461V77.2981H31.9798V79.8461H38.1258ZM35.6058 85.3901H34.5418V82.9821H29.5298V82.1001H40.5758V82.9821H35.6058V85.3901ZM39.3298 87.5881H30.9018V84.1301H31.9658V86.7061H39.3298V87.5881ZM50.6311 75.7441H51.6951V87.9801H50.6311V75.7441ZM48.6991 79.6081C48.6991 81.3441 47.2851 82.4501 45.5211 82.4501C43.7151 82.4501 42.3291 81.2461 42.3291 79.6081C42.3291 77.8861 43.7431 76.6961 45.5211 76.6961C47.3271 76.6961 48.6991 77.8161 48.6991 79.6081ZM47.6631 79.6081C47.6631 78.3761 46.7111 77.6061 45.5211 77.6061C44.3451 77.6061 43.3651 78.4601 43.3651 79.6081C43.3651 80.7421 44.3311 81.5541 45.5211 81.5541C46.6831 81.5541 47.6631 80.7561 47.6631 79.6081ZM49.9171 84.8721C48.8671 84.9981 47.1171 85.1101 45.5631 85.1801C44.1211 85.2501 42.7771 85.2921 41.8531 85.3061L41.6571 84.3681C42.7071 84.3821 44.1491 84.3541 45.6331 84.2701C47.3411 84.2141 48.9231 84.1161 49.8191 84.0041L49.9171 84.8721ZM53.8124 87.8401V86.9861H55.7024V77.0461H53.8124V76.1921H56.7664V87.8401H53.8124Z" fill="#999999"/>
<path fill-rule="evenodd" clip-rule="evenodd" d="M10.9412 102.059H1.05882V110.941H10.9412V102.059ZM1.05882 101H0V102.059V110.941V112H1.05882H10.9412H12V110.941V102.059V101H10.9412H1.05882Z" fill="#222222"/>
<path d="M9 102C9 100.343 7.88071 99 6.5 99C5.11929 99 4 100.343 4 102" stroke="#222222" stroke-width="1.05882"/>
<path d="M8 106.529H4" stroke="#222222" stroke-width="1.05882"/>
<path d="M30.5839 112.98H29.5199V100.744H30.5839V112.98ZM26.9719 109.942H21.1899V101.78H22.2399V104.916H25.9079V101.78H26.9719V109.942ZM25.9079 109.046V105.798H22.2399V109.046H25.9079ZM42.6412 107.016H41.5772V100.744H42.6412V107.016ZM43.0892 112.896H34.7312V109.788H41.5772V108.528H34.7172V107.66H42.6412V110.6H35.7952V112.014H43.0892V112.896ZM38.9872 106.456H33.2752V101.514H38.9872V106.456ZM37.9232 105.574V102.396H34.3392V105.574H37.9232ZM54.8945 112.812H46.0745V109.774H53.3545V108.458H45.9765V107.604H54.4185V110.558H47.1385V111.958H54.8945V112.812ZM54.4325 101.402C54.4325 103.04 54.3065 104.244 54.0545 105.364H55.8045V106.232H44.7585V105.364H52.9905C53.2285 104.468 53.3405 103.474 53.3405 102.284H46.1025V101.402H54.4325ZM66.8677 107.296H65.8037V100.744H66.8677V107.296ZM66.8817 112.812H58.9857V107.968H60.0497V109.522H65.8177V107.968H66.8817V112.812ZM65.8177 111.944V110.39H60.0497V111.944H65.8177ZM60.3437 101.346C62.0657 101.346 63.4797 102.466 63.4797 104.202C63.4797 105.952 62.0657 107.044 60.3437 107.044C58.6357 107.044 57.1937 105.952 57.1937 104.216C57.1937 102.494 58.6217 101.346 60.3437 101.346ZM60.3437 102.27C59.1397 102.27 58.2577 103.054 58.2577 104.202C58.2577 105.378 59.1397 106.162 60.3437 106.162C61.5897 106.162 62.4157 105.378 62.4157 104.216C62.4157 103.068 61.6037 102.27 60.3437 102.27ZM78.897 100.744V112.98H77.847V100.744H78.897ZM76.601 108.486L76.699 109.41C75.285 109.732 72.093 109.97 70.217 109.97H69.671V102.018H70.749V109.032C72.317 109.032 75.145 108.808 76.601 108.486ZM90.5343 100.744V105.602H92.5223V106.498H90.5343V112.98H89.4703V100.744H90.5343ZM82.6523 109.074H83.3523C84.9343 109.074 87.3563 108.934 88.5323 108.682L88.6443 109.564C87.3283 109.816 84.9063 109.984 82.7783 109.984H81.5743V102.018H87.3843V102.914H82.6523V109.074ZM93.2676 111.762V110.516H94.4856V111.762H93.2676Z" fill="#222222"/>
<path d="M0 132.5L335 132.001" stroke="#DEDEDE"/>
<path d="M0.489902 158.83V158.15L3.3299 155.3C4.3499 154.27 4.7499 153.62 4.7499 153.05C4.7499 152.11 4.1099 151.56 3.1099 151.56C2.0299 151.56 1.4499 152.38 1.4499 153.27H0.399902C0.399902 151.82 1.4499 150.63 3.1199 150.63C4.7299 150.63 5.7899 151.6 5.7899 153.04C5.7899 153.9 5.2999 154.63 4.0999 155.86L1.9999 157.92H6.0599V158.83H0.489902ZM10.0324 159.01C8.3424 159.01 7.0724 157.62 7.0724 154.82C7.0724 152.02 8.3424 150.63 10.0324 150.63C11.7124 150.63 12.9824 152.02 12.9824 154.82C12.9824 157.62 11.7124 159.01 10.0324 159.01ZM10.0324 158.08C11.1124 158.08 11.9724 157 11.9724 154.82C11.9724 152.65 11.1124 151.56 10.0324 151.56C8.9424 151.56 8.0824 152.65 8.0824 154.82C8.0824 157 8.9424 158.08 10.0324 158.08ZM13.986 158.83V158.15L16.826 155.3C17.846 154.27 18.246 153.62 18.246 153.05C18.246 152.11 17.606 151.56 16.606 151.56C15.526 151.56 14.946 152.38 14.946 153.27H13.896C13.896 151.82 14.946 150.63 16.616 150.63C18.226 150.63 19.286 151.6 19.286 153.04C19.286 153.9 18.796 154.63 17.596 155.86L15.496 157.92H19.556V158.83H13.986ZM23.3285 159.01C21.6085 159.01 20.5485 157.97 20.4885 156.57H21.5285C21.5585 157.43 22.1985 158.1 23.3285 158.1C24.4485 158.1 25.1185 157.46 25.1185 156.66C25.1185 155.76 24.3985 155.23 23.1885 155.23H22.3085V154.36H23.1885C24.2085 154.36 24.8985 153.78 24.8985 152.95C24.8985 152.17 24.2785 151.53 23.2185 151.53C22.1385 151.53 21.5485 152.29 21.5485 153.14H20.4985C20.4985 151.73 21.5785 150.63 23.2185 150.63C24.8685 150.63 25.9385 151.66 25.9385 152.92C25.9385 153.9 25.2485 154.58 24.5085 154.76C25.3185 154.91 26.1485 155.54 26.1485 156.65C26.1485 157.99 25.0085 159.01 23.3285 159.01ZM27.9305 158.96C27.5305 158.96 27.2205 158.65 27.2205 158.25C27.2205 157.85 27.5305 157.54 27.9305 157.54C28.3305 157.54 28.6305 157.85 28.6305 158.25C28.6305 158.65 28.3305 158.96 27.9305 158.96ZM30.5669 158.83V151.74H28.9069V150.82H31.6169V158.83H30.5669ZM35.0884 158.83V151.74H33.4284V150.82H36.1384V158.83H35.0884ZM38.5946 158.96C38.1946 158.96 37.8846 158.65 37.8846 158.25C37.8846 157.85 38.1946 157.54 38.5946 157.54C38.9946 157.54 39.2946 157.85 39.2946 158.25C39.2946 158.65 38.9946 158.96 38.5946 158.96ZM43.0402 159.01C41.3502 159.01 40.0802 157.62 40.0802 154.82C40.0802 152.02 41.3502 150.63 43.0402 150.63C44.7202 150.63 45.9902 152.02 45.9902 154.82C45.9902 157.62 44.7202 159.01 43.0402 159.01ZM43.0402 158.08C44.1202 158.08 44.9802 157 44.9802 154.82C44.9802 152.65 44.1202 151.56 43.0402 151.56C41.9502 151.56 41.0902 152.65 41.0902 154.82C41.0902 157 41.9502 158.08 43.0402 158.08ZM47.5315 158.83L50.7915 151.74H46.5115V150.82H52.0015V151.52L48.6415 158.83H47.5315Z" fill="#222222"/>
<path d="M70.8701 159.97C69.8301 159.97 69.1301 159.47 68.8401 158.98V159.83H67.8101V151.57H68.8401V154.96C69.1301 154.47 69.8301 153.97 70.8701 153.97C72.4901 153.97 73.7001 155.26 73.7001 156.97C73.7001 158.68 72.4901 159.97 70.8701 159.97ZM70.7801 159.06C71.9301 159.06 72.6901 158.16 72.6901 156.97C72.6901 155.78 71.9301 154.88 70.7801 154.88C69.6201 154.88 68.8201 155.78 68.8201 156.97C68.8201 158.16 69.6201 159.06 70.7801 159.06ZM77.5471 159.97C75.9271 159.97 74.7171 158.68 74.7171 156.97C74.7171 155.26 75.9271 153.97 77.5471 153.97C78.5871 153.97 79.2871 154.47 79.5771 154.96V154.11H80.6071V159.83H79.5771V158.98C79.2871 159.47 78.5871 159.97 77.5471 159.97ZM77.6371 159.06C78.7971 159.06 79.5971 158.16 79.5971 156.97C79.5971 155.78 78.7971 154.88 77.6371 154.88C76.4871 154.88 75.7271 155.78 75.7271 156.97C75.7271 158.16 76.4871 159.06 77.6371 159.06ZM82.2242 154.11H83.2542V154.99C83.5042 154.56 84.1942 153.97 85.3142 153.97C85.6642 153.97 85.8942 154 86.0942 154.07V155.05C85.8742 154.95 85.5942 154.89 85.2442 154.89C84.0742 154.89 83.2542 155.83 83.2542 156.87V159.83H82.2242V154.11ZM90.1167 152.94L88.9067 153.49L90.1167 154.03L89.7167 154.72L88.6467 153.94L88.7767 155.27H87.9767L88.1067 153.95L87.0267 154.72L86.6367 154.03L87.8467 153.49L86.6367 152.94L87.0367 152.25L88.1067 153.03L87.9767 151.7H88.7767L88.6467 153.03L89.7267 152.26L90.1167 152.94ZM94.2574 152.94L93.0474 153.49L94.2574 154.03L93.8574 154.72L92.7874 153.94L92.9174 155.27H92.1174L92.2474 153.95L91.1674 154.72L90.7774 154.03L91.9874 153.49L90.7774 152.94L91.1774 152.25L92.2474 153.03L92.1174 151.7H92.9174L92.7874 153.03L93.8674 152.26L94.2574 152.94ZM98.398 152.94L97.188 153.49L98.398 154.03L97.998 154.72L96.928 153.94L97.058 155.27H96.258L96.388 153.95L95.308 154.72L94.918 154.03L96.128 153.49L94.918 152.94L95.318 152.25L96.388 153.03L96.258 151.7H97.058L96.928 153.03L98.008 152.26L98.398 152.94ZM102.539 152.94L101.329 153.49L102.539 154.03L102.139 154.72L101.069 153.94L101.199 155.27H100.399L100.529 153.95L99.4486 154.72L99.0586 154.03L100.269 153.49L99.0586 152.94L99.4586 152.25L100.529 153.03L100.399 151.7H101.199L101.069 153.03L102.149 152.26L102.539 152.94ZM106.679 152.94L105.469 153.49L106.679 154.03L106.279 154.72L105.209 153.94L105.339 155.27H104.539L104.669 153.95L103.589 154.72L103.199 154.03L104.409 153.49L103.199 152.94L103.599 152.25L104.669 153.03L104.539 151.7H105.339L105.209 153.03L106.289 152.26L106.679 152.94ZM110.82 152.94L109.61 153.49L110.82 154.03L110.42 154.72L109.35 153.94L109.48 155.27H108.68L108.81 153.95L107.73 154.72L107.34 154.03L108.55 153.49L107.34 152.94L107.74 152.25L108.81 153.03L108.68 151.7H109.48L109.35 153.03L110.43 152.26L110.82 152.94ZM114.96 152.94L113.75 153.49L114.96 154.03L114.56 154.72L113.49 153.94L113.62 155.27H112.82L112.95 153.95L111.87 154.72L111.48 154.03L112.69 153.49L111.48 152.94L111.88 152.25L112.95 153.03L112.82 151.7H113.62L113.49 153.03L114.57 152.26L114.96 152.94Z" fill="#222222"/>
<path d="M1.21777 185.84V174.192H4.18577V175.046H2.29577V184.986H4.18577V185.84H1.21777ZM10.5953 182.914H5.70925V174.962H6.75925V177.958H9.54525V174.962H10.5953V182.914ZM15.6213 185.98H14.5713V179.666H13.0733V185.364H12.0373V174.038H13.0733V178.77H14.5713V173.744H15.6213V185.98ZM9.54525 182.018V178.84H6.75925V182.018H9.54525ZM27.1466 183.824C27.1466 185.224 25.6206 186.008 22.9326 186.008C20.2586 186.008 18.7466 185.196 18.7466 183.824C18.7466 182.466 20.2586 181.626 22.9326 181.626C25.6206 181.626 27.1466 182.41 27.1466 183.824ZM22.9326 182.508C21.0146 182.508 19.8386 182.998 19.8386 183.824C19.8386 184.65 21.0146 185.126 22.9326 185.126C24.8786 185.126 26.0546 184.65 26.0546 183.824C26.0546 182.998 24.8786 182.508 22.9326 182.508ZM28.4626 180.618H17.4166V179.722H22.4006V177.846H23.4646V179.722H28.4626V180.618ZM27.9306 177.622L27.4406 178.532C25.4106 178.154 23.5206 176.866 22.9326 175.69C22.4426 176.866 20.5946 178.154 18.4946 178.532L17.9906 177.636C20.0486 177.412 22.4006 176.04 22.4006 174.318V173.898H23.5066V174.318C23.5066 176.04 26.0966 177.44 27.9306 177.622ZM39.1898 178.728H30.9158V174.416H39.1898V178.728ZM38.1258 177.846V175.298H31.9798V177.846H38.1258ZM35.6058 183.39H34.5418V180.982H29.5298V180.1H40.5758V180.982H35.6058V183.39ZM39.3298 185.588H30.9018V182.13H31.9658V184.706H39.3298V185.588ZM50.6311 173.744H51.6951V185.98H50.6311V173.744ZM48.6991 177.608C48.6991 179.344 47.2851 180.45 45.5211 180.45C43.7151 180.45 42.3291 179.246 42.3291 177.608C42.3291 175.886 43.7431 174.696 45.5211 174.696C47.3271 174.696 48.6991 175.816 48.6991 177.608ZM47.6631 177.608C47.6631 176.376 46.7111 175.606 45.5211 175.606C44.3451 175.606 43.3651 176.46 43.3651 177.608C43.3651 178.742 44.3311 179.554 45.5211 179.554C46.6831 179.554 47.6631 178.756 47.6631 177.608ZM49.9171 182.872C48.8671 182.998 47.1171 183.11 45.5631 183.18C44.1211 183.25 42.7771 183.292 41.8531 183.306L41.6571 182.368C42.7071 182.382 44.1491 182.354 45.6331 182.27C47.3411 182.214 48.9231 182.116 49.8191 182.004L49.9171 182.872ZM53.8124 185.84V184.986H55.7024V175.046H53.8124V174.192H56.7664V185.84H53.8124Z" fill="#999999"/>
<path fill-rule="evenodd" clip-rule="evenodd" d="M10.9412 200.059H1.05882V208.941H10.9412V200.059ZM1.05882 199H0V200.059V208.941V210H1.05882H10.9412H12V208.941V200.059V199H10.9412H1.05882Z" fill="#222222"/>
<path d="M9 200C9 198.343 7.88071 197 6.5 197C5.11929 197 4 198.343 4 200" stroke="#222222" stroke-width="1.05882"/>
<path d="M8 204.529H4" stroke="#222222" stroke-width="1.05882"/>
<path d="M30.5839 210.98H29.5199V198.744H30.5839V210.98ZM26.9719 207.942H21.1899V199.78H22.2399V202.916H25.9079V199.78H26.9719V207.942ZM25.9079 207.046V203.798H22.2399V207.046H25.9079ZM42.3412 205.016H41.2772V198.744H42.3412V205.016ZM42.7892 210.896H34.4312V207.788H41.2772V206.528H34.4172V205.66H42.3412V208.6H35.4952V210.014H42.7892V210.896ZM38.6872 204.456H32.9752V199.514H38.6872V204.456ZM37.6232 203.574V200.396H34.0392V203.574H37.6232ZM54.2945 210.812H45.4745V207.774H52.7545V206.458H45.3765V205.604H53.8185V208.558H46.5385V209.958H54.2945V210.812ZM53.8325 199.402C53.8325 201.04 53.7065 202.244 53.4545 203.364H55.2045V204.232H44.1585V203.364H52.3905C52.6285 202.468 52.7405 201.474 52.7405 200.284H45.5025V199.402H53.8325ZM65.9677 205.296H64.9037V198.744H65.9677V205.296ZM65.9817 210.812H58.0857V205.968H59.1497V207.522H64.9177V205.968H65.9817V210.812ZM64.9177 209.944V208.39H59.1497V209.944H64.9177ZM59.4437 199.346C61.1657 199.346 62.5797 200.466 62.5797 202.202C62.5797 203.952 61.1657 205.044 59.4437 205.044C57.7357 205.044 56.2937 203.952 56.2937 202.216C56.2937 200.494 57.7217 199.346 59.4437 199.346ZM59.4437 200.27C58.2397 200.27 57.3577 201.054 57.3577 202.202C57.3577 203.378 58.2397 204.162 59.4437 204.162C60.6897 204.162 61.5157 203.378 61.5157 202.216C61.5157 201.068 60.7037 200.27 59.4437 200.27ZM77.697 198.744V210.98H76.647V198.744H77.697ZM75.401 206.486L75.499 207.41C74.085 207.732 70.893 207.97 69.017 207.97H68.471V200.018H69.549V207.032C71.117 207.032 73.945 206.808 75.401 206.486ZM89.0343 198.744V203.602H91.0223V204.498H89.0343V210.98H87.9703V198.744H89.0343ZM81.1523 207.074H81.8523C83.4343 207.074 85.8563 206.934 87.0323 206.682L87.1443 207.564C85.8283 207.816 83.4063 207.984 81.2783 207.984H80.0743V200.018H85.8843V200.914H81.1523V207.074ZM91.4676 209.762V208.516H92.6856V209.762H91.4676Z" fill="#222222"/>
<path d="M316.46 201.17H316.91L313.17 209.19H312.72L313.89 206.69L311.33 201.17H311.79L314.12 206.21L316.46 201.17ZM320.268 206.91C318.698 206.91 317.548 205.64 317.548 203.97C317.548 202.3 318.698 201.03 320.268 201.03C321.838 201.03 322.988 202.3 322.988 203.97C322.988 204.03 322.988 204.11 322.978 204.16H317.978C318.058 205.51 318.968 206.52 320.268 206.52C321.268 206.52 322.028 206.02 322.278 205.36H322.738C322.428 206.25 321.488 206.91 320.268 206.91ZM317.978 203.77H322.558C322.478 202.42 321.568 201.42 320.268 201.42C318.968 201.42 318.058 202.42 317.978 203.77ZM326.588 201.03C327.938 201.03 328.908 201.68 328.938 202.49H328.518C328.488 201.88 327.648 201.41 326.558 201.41C325.498 201.41 324.718 201.88 324.718 202.49C324.718 203.11 325.058 203.55 326.778 203.75C328.498 203.95 329.088 204.5 329.088 205.29C329.088 206.31 328.008 206.91 326.638 206.91C325.098 206.91 324.278 206.18 324.188 205.37H324.618C324.678 205.9 325.268 206.53 326.668 206.53C327.808 206.53 328.668 206.03 328.668 205.31C328.668 204.67 328.208 204.32 326.538 204.11C324.848 203.9 324.298 203.35 324.298 202.53C324.298 201.62 325.258 201.03 326.588 201.03Z" fill="white"/>
<path d="M332 244.5H3C1.61929 244.5 0.5 245.619 0.5 247V289C0.5 290.381 1.61929 291.5 3 291.5H332C333.381 291.5 334.5 290.381 334.5 289V247C334.5 245.619 333.381 244.5 332 244.5Z" stroke="#DEDEDE"/>
<path d="M23.1532 266.728H14.8792V262.416H23.1532V266.728ZM22.0892 265.846V263.298H15.9432V265.846H22.0892ZM19.5692 271.39H18.5052V268.982H13.4932V268.1H24.5392V268.982H19.5692V271.39ZM23.2932 273.588H14.8652V270.13H15.9292V272.706H23.2932V273.588ZM34.5945 261.744H35.6585V273.98H34.5945V261.744ZM32.6625 265.608C32.6625 267.344 31.2485 268.45 29.4845 268.45C27.6785 268.45 26.2925 267.246 26.2925 265.608C26.2925 263.886 27.7065 262.696 29.4845 262.696C31.2905 262.696 32.6625 263.816 32.6625 265.608ZM31.6265 265.608C31.6265 264.376 30.6745 263.606 29.4845 263.606C28.3085 263.606 27.3285 264.46 27.3285 265.608C27.3285 266.742 28.2945 267.554 29.4845 267.554C30.6465 267.554 31.6265 266.756 31.6265 265.608ZM33.8805 270.872C32.8305 270.998 31.0805 271.11 29.5265 271.18C28.0845 271.25 26.7405 271.292 25.8165 271.306L25.6205 270.368C26.6705 270.382 28.1125 270.354 29.5965 270.27C31.3045 270.214 32.8865 270.116 33.7825 270.004L33.8805 270.872ZM41.7475 263.718V262.822H48.3275V263.718H45.5835C45.5835 264.278 45.5835 264.53 45.5975 264.712C45.6955 266.28 47.2075 267.68 48.6075 268.142L48.0055 268.996C46.8435 268.52 45.5415 267.358 45.0375 266.252C44.7015 267.386 43.2875 268.716 41.9715 269.29L41.3555 268.464C42.8955 267.862 44.4355 266.308 44.4915 264.698C44.5055 264.53 44.5055 264.264 44.5055 263.718H41.7475ZM51.3935 270.704H50.3295V266.042H47.8935V265.146H50.3295V261.744H51.3935V270.704ZM51.6595 273.574H43.4135V269.808H44.4775V272.678H51.6595V273.574ZM59.4048 265.734H57.0388V266.14C57.0388 268.436 58.3828 269.808 59.6288 270.452L58.9988 271.236C57.9908 270.676 56.8428 269.514 56.4928 268.24C56.2128 269.528 55.1208 270.844 53.9588 271.558L53.3568 270.83C54.7568 269.976 55.9468 268.45 55.9468 266.168V265.734H53.5948V264.838H59.4048V265.734ZM60.3848 267.932H58.4388V267.05H60.3848V262.038H61.4208V273.364H60.3848V267.932ZM63.8848 273.98H62.8348V261.744H63.8848V273.98ZM54.8968 263.662V262.71H58.1308V263.662H54.8968ZM75.3261 269.066H71.6581V271.558H76.6701V272.454H65.6241V271.558H70.5941V269.066H66.9541V262.584H68.0321V264.838H74.2621V262.584H75.3261V269.066ZM74.2621 268.184V265.72H68.0321V268.184H74.2621ZM87.7334 273.98H86.6694V261.744H87.7334V273.98ZM84.1354 263.046C84.0794 267.022 81.6434 270.06 78.4794 271.558L77.8634 270.718C80.9574 269.36 82.7774 266.7 83.0014 263.942H78.3114V263.046H84.1354Z" fill="#222222"/>
<path d="M92.8818 274.708C91.3278 273.028 90.2778 271.012 90.2778 268.464C90.2778 265.916 91.3278 263.9 92.8818 262.22H94.4358C92.8258 263.858 91.7058 265.986 91.7058 268.464C91.7058 270.942 92.8258 273.07 94.4358 274.708H92.8818ZM99.3554 274.414C97.0034 274.414 95.3794 273.098 95.3794 271.222C95.3794 269.528 96.7234 268.59 97.7314 268.352C96.8634 268.086 95.7714 267.176 95.7714 265.748C95.7714 264.068 97.2134 262.682 99.3554 262.682C101.484 262.682 102.926 264.082 102.926 265.748C102.926 267.176 101.834 268.086 100.966 268.352C101.988 268.59 103.318 269.528 103.318 271.222C103.318 273.098 101.694 274.414 99.3554 274.414ZM99.3554 267.694C100.63 267.694 101.526 266.854 101.526 265.79C101.526 264.754 100.672 263.914 99.3554 263.914C98.0394 263.914 97.1854 264.726 97.1854 265.762C97.1854 266.84 98.0814 267.694 99.3554 267.694ZM99.3554 273.182C100.896 273.182 101.89 272.3 101.89 271.138C101.89 269.962 100.812 269.052 99.3554 269.052C97.8854 269.052 96.8074 269.962 96.8074 271.138C96.8074 272.3 97.8014 273.182 99.3554 273.182ZM108.557 274.414C106.205 274.414 104.581 273.098 104.581 271.222C104.581 269.528 105.925 268.59 106.933 268.352C106.065 268.086 104.973 267.176 104.973 265.748C104.973 264.068 106.415 262.682 108.557 262.682C110.685 262.682 112.127 264.082 112.127 265.748C112.127 267.176 111.035 268.086 110.167 268.352C111.189 268.59 112.519 269.528 112.519 271.222C112.519 273.098 110.895 274.414 108.557 274.414ZM108.557 267.694C109.831 267.694 110.727 266.854 110.727 265.79C110.727 264.754 109.873 263.914 108.557 263.914C107.241 263.914 106.387 264.726 106.387 265.762C106.387 266.84 107.283 267.694 108.557 267.694ZM108.557 273.182C110.097 273.182 111.091 272.3 111.091 271.138C111.091 269.962 110.013 269.052 108.557 269.052C107.087 269.052 106.009 269.962 106.009 271.138C106.009 272.3 107.003 273.182 108.557 273.182ZM117.758 274.414C115.406 274.414 113.782 273.098 113.782 271.222C113.782 269.528 115.126 268.59 116.134 268.352C115.266 268.086 114.174 267.176 114.174 265.748C114.174 264.068 115.616 262.682 117.758 262.682C119.886 262.682 121.328 264.082 121.328 265.748C121.328 267.176 120.236 268.086 119.368 268.352C120.39 268.59 121.72 269.528 121.72 271.222C121.72 273.098 120.096 274.414 117.758 274.414ZM117.758 267.694C119.032 267.694 119.928 266.854 119.928 265.79C119.928 264.754 119.074 263.914 117.758 263.914C116.442 263.914 115.588 264.726 115.588 265.762C115.588 266.84 116.484 267.694 117.758 267.694ZM117.758 273.182C119.298 273.182 120.292 272.3 120.292 271.138C120.292 269.962 119.214 269.052 117.758 269.052C116.288 269.052 115.21 269.962 115.21 271.138C115.21 272.3 116.204 273.182 117.758 273.182ZM122.675 274.708C124.285 273.07 125.391 270.942 125.391 268.464C125.391 265.986 124.285 263.858 122.675 262.22H124.215C125.783 263.9 126.819 265.916 126.819 268.464C126.819 271.012 125.783 273.028 124.215 274.708H122.675Z" fill="#222222"/>
<path d="M287 267.5H310" stroke="#DEDEDE"/>
<path d="M310 265.409L313.105 267.5L310 269.591V265.409Z" fill="#D9D9D9" stroke="#DEDEDE"/>
</svg>
